<?xml version="1.0" standalone="no"?>
<!DOCTYPE svg PUBLIC "-//W3C//DTD SVG 20010904//EN"
 "http://www.w3.org/TR/2001/REC-SVG-20010904/DTD/svg10.dtd">
<svg version="1.0" xmlns="http://www.w3.org/2000/svg"
 width="337.000000pt" height="273.000000pt" viewBox="0 0 337.000000 273.000000"
 preserveAspectRatio="xMidYMid meet">

<g transform="translate(0.000000,273.000000) scale(0.100000,-0.100000)"
fill="#000000" stroke="none">
<path d="M1021 2487 c-53 -52 -94 -102 -112 -139 -16 -31 -33 -59 -39 -63 -12
-8 -13 -35 -1 -35 20 0 100 71 95 85 -4 8 15 33 48 64 56 52 72 58 44 17 -9
-14 -16 -33 -16 -42 0 -10 -12 -33 -26 -53 -15 -20 0 -8 33 27 63 66 67 68
109 52 26 -10 26 -10 20 22 l-6 33 24 -38 c22 -36 63 -73 71 -65 6 5 -100 157
-131 189 l-29 28 -84 -82z"/>
<path d="M1370 2444 c-30 -42 -79 -98 -109 -125 -30 -27 -65 -71 -80 -101 -15
-30 -41 -62 -60 -75 -19 -13 -46 -40 -60 -61 l-25 -37 35 30 c19 17 52 41 72
54 20 12 37 30 37 40 0 20 129 162 130 143 0 -7 -5 -22 -10 -33 -16 -30 0 -23
44 19 41 39 40 34 -8 -38 -17 -25 -32 -52 -34 -60 -2 -8 -15 -31 -29 -50 -14
-19 11 1 57 45 l83 80 -33 -60 -32 -60 55 60 c45 48 56 67 57 94 l0 34 32 -25
c42 -33 45 -44 10 -51 -21 -4 -42 -24 -78 -73 -27 -37 -71 -89 -99 -116 l-50
-50 74 52 c73 51 74 51 67 23 -4 -15 -31 -50 -60 -78 -29 -27 -35 -35 -13 -16
23 19 42 30 44 25 2 -5 -10 -50 -27 -99 -16 -49 -30 -99 -30 -111 0 -34 37
-73 76 -80 27 -5 34 -10 29 -23 -4 -9 -12 -28 -17 -43 -12 -35 -19 -30 -64 38
-30 49 -157 194 -175 202 -4 2 -36 -34 -72 -80 -36 -46 -88 -105 -116 -132
-29 -27 -58 -63 -65 -80 -17 -40 -64 -96 -81 -96 -7 0 -22 -16 -34 -35 -21
-36 -13 -49 11 -17 7 10 33 31 58 47 26 17 44 36 42 45 -1 8 27 44 64 80 37
36 64 57 60 48 -3 -10 -9 -26 -12 -35 -4 -10 15 2 41 27 48 45 48 34 1 -29
-14 -19 -26 -41 -26 -49 0 -9 -12 -31 -26 -51 -16 -21 5 -6 51 39 l78 75 -32
-60 -32 -60 56 59 c40 43 55 67 55 88 0 34 4 35 47 2 18 -14 33 -23 33 -21 0
3 -7 24 -15 47 -22 61 -19 67 15 35 17 -16 30 -36 30 -45 0 -9 14 -29 30 -45
17 -16 29 -36 28 -45 -3 -18 9 -40 23 -40 6 0 7 6 3 13 -5 9 -4 9 5 1 7 -7 15
-40 18 -75 l6 -64 -29 30 c-16 17 -44 38 -62 47 -20 11 -37 31 -48 58 -11 28
-24 42 -42 47 -23 5 -33 -1 -74 -47 -26 -30 -48 -59 -48 -66 0 -7 -24 -34 -52
-60 l-53 -47 70 48 c39 26 85 62 102 78 l32 30 101 -66 100 -67 0 -50 c0 -27
-13 -91 -29 -142 -16 -51 -33 -120 -36 -153 -4 -35 -16 -74 -29 -95 -53 -82
-53 -77 0 -126 64 -60 53 -69 -62 -55 -149 19 -136 21 -162 -29 -32 -64 -27
-92 23 -106 60 -19 119 -16 240 10 95 21 113 22 132 10 16 -10 45 -12 121 -7
l100 6 21 53 c32 76 47 85 47 27 l-1 -47 63 -33 63 -33 60 24 c32 14 84 30
115 36 55 12 55 12 49 43 -4 18 -17 55 -30 82 l-24 50 26 -30 c13 -16 40 -63
59 -102 18 -40 35 -73 37 -73 2 0 27 7 56 16 l53 15 -6 37 c-16 104 -35 141
-94 187 -31 25 -61 45 -65 45 -5 0 -24 -12 -43 -26 -19 -15 -34 -23 -34 -20 0
4 13 33 30 65 l29 59 -34 31 c-30 26 -39 29 -61 21 -14 -6 -33 -10 -42 -10
-43 1 -44 10 -2 188 35 150 63 266 76 311 3 11 9 10 32 -3 l27 -17 -26 23
c-22 19 -25 28 -18 52 10 37 33 61 96 101 28 19 50 40 50 48 -2 16 109 147
124 147 5 0 3 -13 -6 -30 -21 -41 -9 -38 44 13 47 45 46 37 -6 -31 -18 -24
-33 -51 -33 -59 0 -9 -12 -32 -26 -52 -15 -20 10 0 56 44 l82 80 -32 -60 -33
-60 56 60 c47 50 55 64 51 88 -7 34 6 34 45 1 35 -29 37 -24 16 36 -8 24 -13
45 -11 48 7 6 55 -50 56 -65 0 -6 16 -31 36 -54 21 -25 31 -45 25 -47 -9 -3
-9 -8 0 -18 13 -16 33 -19 24 -4 -9 15 -1 12 49 -14 59 -31 59 -17 0 31 -25
21 -68 70 -95 108 -64 93 -161 197 -174 187 -6 -4 -33 -36 -59 -72 -27 -36
-75 -92 -108 -125 -34 -33 -75 -85 -92 -115 -17 -30 -42 -60 -55 -66 -13 -7
-32 -25 -42 -40 -10 -16 -19 -27 -19 -24 0 17 32 104 45 122 8 13 15 35 15 50
0 15 5 39 12 53 l11 25 24 -22 c30 -28 30 -8 -1 37 -28 41 -25 69 6 59 17 -5
19 -3 13 18 -5 17 5 9 38 -27 47 -52 76 -59 34 -9 -13 16 -30 41 -38 55 -21
39 -93 128 -104 129 -5 0 -35 -25 -66 -56 l-57 -57 -56 49 c-31 28 -51 53 -46
58 15 15 -1 36 -41 57 -37 18 -43 29 -51 84 -4 24 -71 59 -148 75 -61 13 -140
0 -140 -23 0 -7 -25 14 -54 46 -30 31 -58 57 -63 57 -4 0 -33 -35 -63 -76z
m162 -96 c-5 -21 -6 -21 -13 -2 -13 33 -11 48 5 35 8 -7 12 -21 8 -33z m412
-232 l36 -45 -24 -55 c-34 -77 -49 -80 -101 -20 -35 40 -40 51 -28 57 8 5 24
7 36 4 18 -5 19 -4 6 5 -14 10 -14 14 -2 39 8 16 19 29 24 29 5 0 9 7 9 15 0
22 4 19 44 -29z m66 -18 c0 -19 -28 -5 -49 23 l-22 30 35 -23 c20 -13 36 -26
36 -30z m94 -13 c-9 -14 -20 -22 -26 -19 -5 3 -2 14 8 25 25 27 37 23 18 -6z
m-279 -15 c-3 -5 -12 -10 -18 -10 -7 0 -6 4 3 10 19 12 23 12 15 0z m307 -32
c-7 -7 -12 -8 -12 -2 0 6 3 14 7 17 3 4 9 5 12 2 2 -3 -1 -11 -7 -17z m-62 -3
c9 -11 7 -21 -11 -47 l-22 -33 36 34 c52 49 46 24 -7 -28 -27 -26 -46 -39 -50
-32 -4 6 -19 11 -34 11 l-27 0 33 26 c20 16 29 29 23 33 -7 5 -6 14 5 29 18
26 36 28 54 7z m-6 -257 c-21 -91 -22 -93 -39 -78 -8 7 -15 19 -15 26 0 8 -9
23 -20 34 l-20 20 22 9 c13 5 31 19 40 30 10 12 24 21 32 21 12 0 12 -9 0 -62z
m-254 7 c-4 -20 -14 -43 -21 -53 -8 -10 -4 -9 11 4 26 22 63 44 75 44 4 0 -7
-16 -24 -35 -43 -49 -39 -52 17 -12 76 54 77 53 22 -17 -52 -66 -63 -73 -89
-57 -13 8 -13 12 -1 28 14 17 14 17 -6 0 -20 -17 -37 -15 -82 8 -6 4 34 73 56
98 36 39 52 36 42 -8z m186 -87 c32 -21 34 -26 29 -58 -9 -52 -68 -250 -75
-250 -3 0 -14 6 -24 13 -17 13 -17 16 8 65 14 28 26 60 26 71 0 25 -27 55 -70
78 -20 10 -38 21 -40 25 -5 7 88 78 103 78 4 0 23 -10 43 -22z m-288 -214 c12
-8 22 -11 22 -6 0 15 38 2 44 -14 6 -16 -47 -136 -80 -179 -33 -43 -31 -79 5
-104 16 -12 33 -21 38 -21 6 0 18 -9 29 -21 17 -18 17 -23 4 -46 -8 -15 -31
-32 -50 -38 -33 -11 -35 -14 -38 -64 -3 -44 -7 -53 -27 -61 -13 -5 -34 -28
-47 -50 -21 -38 -26 -41 -57 -36 -19 3 -42 14 -53 26 -10 11 -25 20 -33 20
-27 0 -37 73 -21 138 17 64 69 194 91 228 8 12 24 50 35 85 12 34 32 84 46
111 27 53 51 61 92 32z m226 -97 c17 -12 16 -18 -6 -120 -21 -97 -25 -106 -43
-101 -28 8 -41 23 -58 65 -14 34 -13 37 25 102 42 69 52 76 82 54z"/>
<path d="M1920 1659 l-35 -31 38 22 c35 21 39 21 62 6 34 -23 38 -20 11 9 -29
31 -33 31 -76 -6z"/>
<path d="M1033 2308 c-77 -75 -126 -141 -62 -83 19 17 45 39 59 50 l24 20 -17
-27 c-25 -40 -21 -42 19 -11 l37 28 -17 -35 -17 -35 36 39 c19 22 35 45 35 53
0 17 15 17 30 -2 29 -34 29 -12 0 30 -17 25 -36 45 -42 45 -5 0 -44 -33 -85
-72z"/>
<path d="M774 2248 c-48 -53 -204 -188 -217 -188 -7 -1 -29 -29 -50 -63 l-39
-62 38 35 c21 19 46 44 55 55 23 27 79 59 79 45 0 -21 -22 -55 -54 -83 l-31
-29 30 21 c53 37 100 80 87 81 -18 0 0 23 67 85 50 46 53 48 37 18 -9 -18 -16
-42 -16 -54 0 -12 -8 -31 -17 -43 -10 -11 4 -3 31 17 75 56 70 33 -9 -41 l-70
-66 70 49 c39 26 79 56 91 67 42 37 33 16 -22 -54 l-58 -71 48 34 c27 19 56
40 65 47 15 10 28 5 89 -37 86 -60 92 -63 92 -58 0 2 -18 17 -41 33 -24 16
-51 47 -65 76 -17 33 -31 48 -44 48 -15 0 -20 7 -20 28 0 26 -73 142 -89 142
-4 0 -21 -15 -37 -32z"/>
<path d="M872 1995 c-23 -18 -50 -42 -60 -52 -9 -10 -12 -12 -7 -3 9 13 8 13
-7 1 -10 -7 -16 -16 -13 -20 2 -4 -21 -32 -51 -62 -30 -30 -66 -77 -79 -104
-12 -28 -30 -57 -39 -64 -17 -14 -22 -41 -7 -41 18 0 100 71 95 83 -2 7 21 37
52 67 31 30 53 46 49 35 -4 -11 -14 -38 -22 -60 -8 -22 -22 -49 -31 -60 -9
-12 8 5 39 37 60 62 64 63 103 48 23 -8 26 -7 26 13 1 22 1 22 15 2 26 -35 57
-65 67 -65 5 0 -4 19 -21 42 -17 23 -31 46 -31 51 0 5 -22 35 -50 67 l-49 57
33 18 c33 18 34 18 72 -6 l39 -24 -37 38 c-21 20 -39 37 -40 36 -2 0 -22 -15
-46 -34z"/>
<path d="M2509 1908 c-23 -20 -89 -105 -89 -116 0 -6 -21 -29 -47 -51 -46 -40
-44 -40 27 10 41 28 87 62 101 76 l26 24 105 -69 c101 -67 189 -118 128 -75
-14 10 -38 32 -55 49 -16 18 -45 39 -63 49 -23 11 -39 30 -52 61 -11 24 -24
44 -29 44 -5 0 -15 2 -23 5 -7 3 -20 0 -29 -7z"/>
<path d="M2887 1890 c-14 -11 -30 -20 -35 -20 -6 0 -33 -29 -61 -65 -55 -70
-57 -80 -7 -39 84 68 119 94 126 94 5 0 18 -13 30 -29 11 -16 39 -44 63 -63
40 -31 38 -23 -8 31 -16 20 -10 18 30 -10 28 -20 50 -41 50 -49 0 -14 85 -61
145 -79 l35 -11 -25 20 c-14 11 -37 22 -51 25 -14 3 -50 31 -80 62 -62 63
-166 153 -178 153 -5 0 -20 -9 -34 -20z"/>
<path d="M2510 1772 c-19 -16 -51 -38 -70 -49 -20 -12 -47 -34 -60 -50 l-25
-28 25 21 c27 22 158 104 166 104 3 0 26 -14 52 -32 l47 -32 -40 47 c-22 25
-45 46 -50 47 -6 0 -26 -13 -45 -28z"/>
<path d="M2849 1773 l-24 -28 28 24 c25 23 32 31 24 31 -2 0 -14 -12 -28 -27z"/>
<path d="M783 1718 c-36 -35 -74 -76 -86 -93 l-20 -30 34 30 c19 17 45 39 58
50 l24 20 -18 -34 -17 -35 41 33 42 33 -23 -38 -22 -39 28 25 c15 14 35 38 43
54 l15 28 24 -23 c13 -12 24 -19 24 -15 0 14 -61 96 -71 96 -6 0 -40 -28 -76
-62z"/>
<path d="M2860 1725 c-8 -9 -9 -15 -2 -15 6 0 14 5 18 11 3 6 15 9 25 6 11 -3
17 -1 13 4 -8 14 -40 11 -54 -6z"/>
<path d="M500 1631 c-78 -79 -162 -152 -187 -164 -13 -6 -42 -38 -65 -71 l-41
-61 39 35 c21 19 40 38 42 43 7 15 92 68 92 57 0 -16 -19 -51 -44 -80 -11 -13
3 -4 32 19 29 24 49 47 44 50 -12 7 -3 20 65 85 l52 49 -16 -49 c-9 -27 -20
-57 -25 -66 -10 -22 5 -24 23 -2 7 8 26 22 43 31 l31 16 -19 -24 c-11 -13 -38
-41 -60 -63 -35 -32 -28 -29 44 20 75 52 82 55 63 28 -12 -17 -29 -37 -38 -44
-8 -7 -15 -17 -15 -22 0 -5 -10 -19 -22 -30 -20 -17 41 22 91 60 15 10 28 5
92 -39 l74 -52 -41 44 c-23 24 -49 59 -58 77 -10 20 -24 32 -36 32 -15 0 -20
7 -20 28 0 27 -66 134 -85 137 -6 1 -30 -19 -55 -44z"/>
<path d="M2285 1610 c-3 -6 1 -7 9 -4 18 7 21 14 7 14 -6 0 -13 -4 -16 -10z"/>
<path d="M1180 1490 c-36 -27 -83 -65 -105 -86 -35 -32 -35 -33 -5 -10 50 39
159 106 171 106 6 0 23 -8 37 -18 53 -37 56 -35 18 9 -22 24 -42 45 -45 46 -3
1 -35 -20 -71 -47z"/>
<path d="M622 1399 c-52 -38 -55 -49 -6 -18 35 21 37 22 66 4 l31 -18 -24 32
c-12 17 -23 31 -24 31 -1 0 -20 -14 -43 -31z"/>
<path d="M425 1374 l-30 -26 33 22 c17 12 32 23 32 26 0 7 -4 5 -35 -22z"/>
<path d="M539 1339 l-24 -20 28 17 c15 9 27 18 27 20 0 8 -8 4 -31 -17z"/>
<path d="M1603 602 c-29 -16 -30 -19 -17 -36 8 -12 14 -44 14 -82 l0 -62 -62
4 c-48 3 -55 2 -31 -5 69 -18 93 -64 93 -175 0 -73 -1 -76 -30 -91 -44 -23
-78 -19 -110 13 -57 58 -66 186 -15 229 30 27 26 29 -15 8 -37 -19 -69 -72
-76 -128 -8 -55 22 -125 64 -153 40 -27 104 -23 146 9 l35 27 3 -23 c2 -18 10
-23 41 -25 36 -3 38 -2 28 17 -7 12 -11 107 -11 255 0 257 2 250 -57 218z"/>
<path d="M2222 547 c-18 -7 -48 -25 -67 -40 -112 -89 -104 -279 14 -362 40
-28 49 -30 130 -30 78 0 92 3 129 27 63 42 96 107 96 187 0 79 -25 134 -80
179 -58 48 -151 64 -222 39z m142 -41 c52 -40 89 -123 94 -215 5 -92 -10 -130
-62 -155 -44 -21 -71 -20 -122 3 -101 46 -166 226 -120 336 31 74 133 90 210
31z"/>
<path d="M828 538 c15 -15 17 -380 2 -409 -10 -18 -7 -19 47 -19 44 0 54 3 45
12 -8 8 -12 48 -12 115 l0 103 29 0 c42 0 66 -26 100 -110 45 -110 54 -120
104 -119 23 1 35 3 26 6 -9 2 -36 46 -60 99 -33 73 -49 99 -72 111 l-30 15 41
18 c49 22 64 48 60 103 -4 55 -48 87 -117 86 -44 -1 -45 -1 -15 -10 49 -14 69
-44 69 -101 0 -63 -26 -88 -92 -88 l-44 0 3 100 3 100 -49 0 c-39 0 -47 -3
-38 -12z"/>
<path d="M1220 525 c-7 -8 -10 -25 -6 -40 5 -20 13 -25 36 -25 23 0 31 5 36
25 7 29 -10 55 -36 55 -10 0 -23 -7 -30 -15z"/>
<path d="M1878 429 c20 -6 40 -22 52 -42 33 -53 29 -57 -65 -57 -79 0 -85 1
-85 21 0 11 13 34 29 50 37 37 23 38 -20 2 -40 -34 -69 -96 -69 -148 0 -79 71
-155 144 -155 43 0 112 37 138 73 l22 30 -33 -24 c-47 -35 -129 -34 -166 1
-34 32 -41 45 -50 98 l-7 42 125 0 c125 0 125 0 119 23 -15 60 -68 98 -134 96
l-33 -1 33 -9z"/>
<path d="M1233 413 c-32 -16 -44 -33 -23 -33 15 0 13 -243 -2 -258 -9 -9 1
-12 47 -12 46 0 56 3 47 12 -8 8 -12 58 -12 160 0 161 1 160 -57 131z"/>
<path d="M2611 411 c-21 -11 -30 -21 -22 -25 16 -10 15 -248 -1 -264 -9 -9 1
-12 47 -12 46 0 56 3 47 12 -17 17 -16 239 1 257 10 11 10 13 0 7 -9 -5 -13 1
-13 18 0 30 -13 32 -59 7z"/>
<path d="M2733 415 c-44 -19 -42 -26 2 -12 31 9 39 8 63 -10 26 -20 27 -23 30
-138 2 -78 -1 -122 -9 -131 -10 -12 -2 -14 47 -14 45 0 55 3 46 12 -8 8 -12
47 -12 108 0 111 -12 163 -43 185 -27 19 -81 19 -124 0z"/>
</g>
</svg>
